<?xml version="1.0" encoding="UTF-8"?>
<!--Generator: Apple Native CoreSVG 175.5-->
<!DOCTYPE svg
PUBLIC "-//W3C//DTD SVG 1.1//EN"
       "http://www.w3.org/Graphics/SVG/1.1/DTD/svg11.dtd">
<svg version="1.1" xmlns="http://www.w3.org/2000/svg" xmlns:xlink="http://www.w3.org/1999/xlink" width="46.2586" height="36.4633">
 <g>
  <rect height="36.4633" opacity="0" width="46.2586" x="0" y="0"/>
  <path d="M2.24452 7.17615L2.24452 10.264L44.0141 10.264L44.0141 7.17615ZM6.40702 36.4633L39.8516 36.4633C44.0832 36.4633 46.2586 34.3039 46.2586 30.1363L46.2586 6.34999C46.2586 2.1789 44.0832 0.00703096 39.8516 0.00703096L6.40702 0.00703096C2.1914 0.00703096 0 2.1789 0 6.34999L0 30.1363C0 34.3039 2.1914 36.4633 6.40702 36.4633ZM6.62889 32.6367C4.81287 32.6367 3.82653 31.6965 3.82653 29.7988L3.82653 6.68397C3.82653 4.7863 4.81287 3.83357 6.62889 3.83357L39.6297 3.83357C41.4297 3.83357 42.4321 4.7863 42.4321 6.68397L42.4321 29.7988C42.4321 31.6965 41.4297 32.6367 39.6297 32.6367Z" fill="#ffffff" fill-opacity="0.85"/>
  <path d="M8.75702 27.957C8.75702 29.0254 9.4953 29.7406 10.5832 29.7406L35.7305 29.7406C36.8219 29.7406 37.5566 29.0254 37.5566 27.957L37.5566 25.1152C37.5566 24.0469 36.8219 23.3352 35.7305 23.3352L10.5832 23.3352C9.4953 23.3352 8.75702 24.0469 8.75702 25.1152Z" fill="#ffffff" fill-opacity="0.85"/>
 </g>
</svg>
